<?xml version="1.0" encoding="UTF-8" standalone="no"?>
<svg
   xmlns:dc="http://purl.org/dc/elements/1.1/"
   xmlns:cc="http://creativecommons.org/ns#"
   xmlns:rdf="http://www.w3.org/1999/02/22-rdf-syntax-ns#"
   xmlns:svg="http://www.w3.org/2000/svg"
   xmlns="http://www.w3.org/2000/svg"
   id="svg8"
   version="1.1"
   viewBox="0 0 180 40"
   height="40mm"
   width="180mm">
  <defs
     id="defs2" />
  <metadata
     id="metadata5">
    <rdf:RDF>
      <cc:Work
         rdf:about="">
        <dc:format>image/svg+xml</dc:format>
        <dc:type
           rdf:resource="http://purl.org/dc/dcmitype/StillImage" />
        <dc:title></dc:title>
      </cc:Work>
    </rdf:RDF>
  </metadata>
  <g
     transform="translate(0,-257)"
     id="layer1">
    <g
       id="text817"
       style="font-style:normal;font-weight:normal;font-size:25.63215256px;line-height:1.25;font-family:sans-serif;letter-spacing:0px;word-spacing:0px;fill:#000000;fill-opacity:1;stroke:none;stroke-width:0.64080381"
       aria-label="HTTP probe">
      <path
         id="path857"
         style="font-style:normal;font-variant:normal;font-weight:normal;font-stretch:normal;font-family:Audiowide;-inkscape-font-specification:Audiowide;stroke-width:0.64080381;fill:#000000"
         d="M 9.5631823,273.95123 H 20.990016 v -7.3342 h 3.254082 v 17.94751 h -3.254082 v -7.3342 H 9.5631823 v 7.3342 H 6.3091004 v -17.94751 h 3.2540819 z" />
      <path
         id="path859"
         style="font-style:normal;font-variant:normal;font-weight:normal;font-stretch:normal;font-family:Audiowide;-inkscape-font-specification:Audiowide;stroke-width:0.64080381;fill:#000000"
         d="m 44.269217,269.87111 h -7.171496 v 14.69343 h -3.254082 v -14.69343 h -7.184012 v -3.25408 h 17.60959 z" />
      <path
         id="path861"
         style="font-style:normal;font-variant:normal;font-weight:normal;font-stretch:normal;font-family:Audiowide;-inkscape-font-specification:Audiowide;stroke-width:0.64080381;fill:#000000"
         d="m 62.880064,269.87111 h -7.171496 v 14.69343 h -3.254082 v -14.69343 h -7.184011 v -3.25408 h 17.609589 z" />
      <path
         id="path863"
         style="font-style:normal;font-variant:normal;font-weight:normal;font-stretch:normal;font-family:Audiowide;-inkscape-font-specification:Audiowide;stroke-width:0.64080381;fill:#000000"
         d="m 83.092916,274.12645 q 0,1.1139 -0.275346,1.99 -0.275345,0.8761 -0.750942,1.55194 -0.463081,0.66334 -1.07635,1.13893 -0.613269,0.4756 -1.289117,0.77598 -0.663332,0.30037 -1.351695,0.43805 -0.675848,0.13767 -1.276602,0.13767 h -7.359231 v -3.25408 h 7.359231 q 0.625785,-0.0501 1.126413,-0.25032 0.513144,-0.21276 0.876099,-0.5632 0.362955,-0.35044 0.563207,-0.83856 0.200251,-0.50062 0.200251,-1.12641 v -1.47685 q -0.06258,-0.61327 -0.26283,-1.12641 -0.200251,-0.51315 -0.550691,-0.8761 -0.337924,-0.36296 -0.826036,-0.56321 -0.488112,-0.21277 -1.126413,-0.21277 h -7.3342 q -0.650816,0 -0.98874,0.33793 -0.337924,0.33792 -0.337924,0.97622 v 13.37928 h -3.254082 v -13.37928 q 0,-1.25157 0.450565,-2.12767 0.463081,-0.8761 1.138929,-1.41427 0.688364,-0.53818 1.489368,-0.77597 0.801005,-0.25032 1.476853,-0.25032 h 7.359231 q 1.101382,0 1.977481,0.28786 0.876099,0.27535 1.539431,0.75094 0.675848,0.46309 1.138928,1.07635 0.475597,0.61327 0.775974,1.28912 0.312892,0.66333 0.450565,1.3517 0.137673,0.67585 0.137673,1.2766 z" />
      <path
         id="path865"
         style="font-style:normal;font-variant:normal;font-weight:normal;font-stretch:normal;font-family:Audiowide;-inkscape-font-specification:Audiowide;stroke-width:0.64080381;fill:#000000"
         d="m 108.53734,279.99631 q 0,0.83856 -0.21277,1.5144 -0.21277,0.66334 -0.56321,1.17648 -0.35044,0.50063 -0.81352,0.86358 -0.46308,0.35044 -0.97622,0.57573 -0.50063,0.22528 -1.01377,0.33792 -0.51315,0.10012 -0.97623,0.10012 h -5.86986 v -3.25408 h 5.86986 q 0.65082,0 0.97623,-0.33792 0.32541,-0.33792 0.32541,-0.97623 v -4.38049 q 0,-0.67585 -0.33793,-1.00126 -0.32541,-0.3254 -0.96371,-0.3254 h -5.844829 q -0.663332,0 -1.001256,0.33792 -0.337924,0.32541 -0.337924,0.96371 v 13.20406 h -3.254082 v -13.20406 q 0,-0.83855 0.212767,-1.50189 0.212767,-0.66333 0.563207,-1.16396 0.362955,-0.51314 0.826036,-0.86358 0.463081,-0.36295 0.963709,-0.58824 0.513143,-0.22528 1.026287,-0.32541 0.525659,-0.11264 0.976225,-0.11264 h 5.86986 q 0.83855,0 1.50189,0.21277 0.66333,0.21277 1.16396,0.56321 0.51314,0.35044 0.86358,0.81352 0.36296,0.46308 0.58824,0.97622 0.22528,0.50063 0.32541,1.01377 0.11264,0.51315 0.11264,0.97623 z" />
      <path
         id="path867"
         style="font-style:normal;font-variant:normal;font-weight:normal;font-stretch:normal;font-family:Audiowide;-inkscape-font-specification:Audiowide;stroke-width:0.64080381;fill:#000000"
         d="m 123.15567,274.28916 h -7.32168 q -0.66333,0 -1.00126,0.33792 -0.33792,0.32541 -0.33792,0.96371 v 8.97375 h -3.25408 v -8.97375 q 0,-0.83855 0.21276,-1.50189 0.21277,-0.66333 0.56321,-1.16396 0.36295,-0.51314 0.82604,-0.86358 0.46308,-0.36295 0.9637,-0.58824 0.51315,-0.22528 1.02629,-0.32541 0.52566,-0.11264 0.97623,-0.11264 h 7.34671 z" />
      <path
         id="path869"
         style="font-style:normal;font-variant:normal;font-weight:normal;font-stretch:normal;font-family:Audiowide;-inkscape-font-specification:Audiowide;stroke-width:0.64080381;fill:#000000"
         d="m 139.96425,279.99631 q 0,0.83856 -0.21276,1.5144 -0.21277,0.66334 -0.56321,1.17648 -0.35044,0.50063 -0.81352,0.86358 -0.46308,0.35044 -0.97623,0.57573 -0.50062,0.22528 -1.02628,0.33792 -0.51315,0.10012 -0.97623,0.10012 h -5.86986 q -0.67585,0 -1.47685,-0.23779 -0.80101,-0.2378 -1.48937,-0.77598 -0.67585,-0.55069 -1.13893,-1.41427 -0.45057,-0.8761 -0.45057,-2.14019 v -4.40552 q 0,-1.25157 0.45057,-2.11516 0.46308,-0.87609 1.13893,-1.41427 0.68836,-0.55069 1.48937,-0.78849 0.801,-0.2378 1.47685,-0.2378 h 5.86986 q 1.25157,0 2.12767,0.45057 0.8761,0.45056 1.41428,1.13893 0.53817,0.67585 0.77597,1.47685 0.25031,0.801 0.25031,1.48937 z m -3.25408,-4.38049 q 0,-0.67585 -0.33792,-1.00126 -0.33793,-0.3254 -0.97623,-0.3254 h -5.84483 q -0.65082,0 -0.98874,0.33792 -0.33792,0.32541 -0.33792,0.96371 v 4.40552 q 0,0.63831 0.33792,0.97623 0.33792,0.33792 0.98874,0.33792 h 5.84483 q 0.66333,0 0.98874,-0.33792 0.32541,-0.33792 0.32541,-0.97623 z" />
      <path
         id="path871"
         style="font-style:normal;font-variant:normal;font-weight:normal;font-stretch:normal;font-family:Audiowide;-inkscape-font-specification:Audiowide;stroke-width:0.64080381;fill:#000000"
         d="m 157.64894,279.99631 q 0,0.46309 -0.11264,0.97623 -0.10013,0.51314 -0.32541,1.02629 -0.22528,0.50062 -0.58824,0.96371 -0.35044,0.46308 -0.86358,0.82603 -0.50063,0.35044 -1.16396,0.56321 -0.66333,0.21276 -1.50188,0.21276 h -5.86987 q -0.46308,0 -0.97622,-0.10012 -0.51315,-0.11264 -1.02629,-0.33792 -0.50063,-0.22529 -0.96371,-0.57573 -0.46308,-0.36295 -0.82603,-0.86358 -0.35044,-0.51314 -0.56321,-1.17648 -0.21277,-0.67584 -0.21277,-1.5144 V 265.3154 h 3.25408 v 14.68091 q 0,0.60076 0.37547,0.96371 0.37548,0.35044 0.93868,0.35044 h 5.86987 q 0.61326,0 0.95119,-0.36295 0.35044,-0.36296 0.35044,-0.9512 v -4.40552 q 0,-0.61327 -0.36296,-0.9512 -0.36295,-0.35043 -0.93867,-0.35043 h -5.86987 v -3.25409 h 5.86987 q 0.46308,0 0.97622,0.11264 0.51314,0.10013 1.01377,0.32541 0.51315,0.22529 0.97623,0.58824 0.46308,0.35044 0.81352,0.86358 0.35044,0.50063 0.5632,1.16396 0.21277,0.66334 0.21277,1.50189 z" />
      <path
         id="path873"
         style="font-style:normal;font-variant:normal;font-weight:normal;font-stretch:normal;font-family:Audiowide;-inkscape-font-specification:Audiowide;stroke-width:0.64080381;fill:#000000"
         d="m 174.98319,275.51569 q 0,0.67585 -0.2378,1.46434 -0.2378,0.77597 -0.77597,1.45182 -0.52566,0.66333 -1.38924,1.1139 -0.85107,0.45056 -2.07761,0.45056 h -5.86986 v -3.09137 h 5.86986 q 0.66333,0 1.02629,-0.40051 0.36295,-0.41301 0.36295,-1.01377 0,-0.6383 -0.41302,-1.00125 -0.4005,-0.36296 -0.97622,-0.36296 h -5.86986 q -0.66334,0 -1.02629,0.41302 -0.36296,0.4005 -0.36296,1.00126 v 4.54319 q 0,0.65082 0.40051,1.01378 0.41301,0.36295 1.01377,0.36295 h 5.84483 v 3.10389 h -5.86986 q -0.67585,0 -1.46434,-0.23779 -0.77597,-0.2378 -1.45182,-0.76346 -0.66333,-0.53818 -1.1139,-1.38924 -0.45056,-0.86359 -0.45056,-2.09013 v -4.56823 q 0,-0.67584 0.23779,-1.45182 0.2378,-0.78849 0.76346,-1.45182 0.53818,-0.67585 1.38924,-1.12641 0.86359,-0.45057 2.09013,-0.45057 h 5.86986 q 0.67585,0 1.45182,0.2378 0.78849,0.2378 1.45182,0.77598 0.67585,0.52565 1.12641,1.38924 0.45057,0.85107 0.45057,2.0776 z" />
    </g>
  </g>
</svg>
