<?xml version="1.0" encoding="UTF-8" standalone="no"?>
<svg
   xmlns:dc="http://purl.org/dc/elements/1.1/"
   xmlns:cc="http://creativecommons.org/ns#"
   xmlns:rdf="http://www.w3.org/1999/02/22-rdf-syntax-ns#"
   xmlns:svg="http://www.w3.org/2000/svg"
   xmlns="http://www.w3.org/2000/svg"
   id="svg845"
   version="1.1"
   viewBox="0 0 201 213"
   height="213mm"
   width="201mm">
  <defs
     id="defs839" />
  <metadata
     id="metadata842">
    <rdf:RDF>
      <cc:Work
         rdf:about="">
        <dc:format>image/svg+xml</dc:format>
        <dc:type
           rdf:resource="http://purl.org/dc/dcmitype/StillImage" />
        <dc:title></dc:title>
      </cc:Work>
    </rdf:RDF>
  </metadata>
  <g
     transform="translate(0,-84)"
     id="layer1">
    <path
       id="path2"
       d="m 148.59081,100.33727 c 0,0.87808 -0.25463,1.60914 -0.7683,2.19524 l -0.21954,0.21987 c -0.65853,0.58578 -1.46204,0.87808 -2.41478,0.87808 -0.73105,0 -1.46423,-0.29205 -2.19525,-0.87808 l -0.21954,-0.21987 c -0.5861,-0.58577 -0.87591,-1.31716 -0.87591,-2.19524 0,-1.097609 0.29197,-1.903332 0.87591,-2.41476 0.73321,-0.730968 1.53667,-1.097696 2.41697,-1.097696 0.95274,0 1.75621,0.366728 2.41478,1.097696 0.65638,0.438912 0.98566,1.244635 0.98566,2.41476 z m -2.08549,0 c 0,-0.511092 -0.0722,-0.840816 -0.21953,-0.987922 -0.29413,-0.219871 -0.65854,-0.329392 -1.09762,-0.329392 l -0.8781,0.329392 c -0.14486,0.145198 -0.21953,0.474589 -0.21953,0.987922 0,0.36673 0.0722,0.62311 0.21953,0.76831 h 0.10977 c 0.21954,0.21987 0.47418,0.32939 0.76831,0.32939 0.43908,0 0.80348,-0.10952 1.09763,-0.32939 0.1471,-0.14686 0.21954,-0.40158 0.21954,-0.76831 z m 3.8417,31.06297 c 1.90328,0.14686 3.58704,0.95276 5.04908,2.41478 1.7584,1.90335 2.63431,4.06125 2.63431,6.47603 v 9.43965 c 0,2.70676 -0.87591,4.8669 -2.63431,6.47603 -1.24251,1.38959 -2.78138,2.23257 -4.61003,2.52455 l -1.31715,0.10952 c -2.2677,9.87868 -7.24653,18.58723 -14.92991,26.1235 l -1.53449,1.53669 c 0.73105,2.0482 0.98786,4.06122 0.76831,6.03699 v 0.43892 l 1.86596,1.20738 c 3.07335,1.90325 5.41569,2.85384 7.02481,2.85384 3.80437,0 6.87993,-1.02518 9.22006,-3.07338 l 1.31715,-1.09761 c -0.65862,-2.48944 -0.98786,-4.9393 -0.98786,-7.35415 0,-4.02389 1.06031,-6.95232 3.18092,-8.78098 1.46423,-1.24472 3.3324,-1.866 5.60009,-1.866 1.46204,0 2.63211,0.58577 3.51241,1.75623 2.34013,-2.4872 4.79443,-3.73192 7.35414,-3.73192 4.02604,0 7.5736,1.42692 10.64914,4.28076 2.56187,2.70674 3.84168,5.56274 3.84168,8.56145 0,4.68466 -2.12279,8.6713 -6.36622,11.96413 -2.92627,2.19523 -6.40139,3.65949 -10.42746,4.39054 l 0.10977,0.54843 c 0,5.26861 -2.66943,9.95103 -8.01049,14.04959 -5.12151,3.58489 -10.24524,5.37838 -15.36676,5.37838 -2.12281,0 -4.39051,-0.36673 -6.80748,-1.09761 -2.41478,-0.73097 -4.35099,-1.57403 -5.81523,-2.52454 l -1.87033,-1.53677 c 2.05037,18.73209 2.63431,36.80781 1.7584,54.22276 l 0.10977,14.26913 h 31.93873 c 1.09763,0 1.64645,0.54843 1.64645,1.64646 0,1.09761 -0.54885,1.64646 -1.64645,1.64646 H 43.877267 c -0.439078,0 -0.803483,-0.14686 -1.097629,-0.43891 -0.364405,-0.36673 -0.548848,-0.76831 -0.548848,-1.20738 0,-1.09762 0.548848,-1.64647 1.646435,-1.64647 h 14.378908 v -13.17151 l -0.109769,-1.09762 -0.219539,-10.75675 -0.10977,0.10952 c -4.829553,0 -8.892969,-1.71889 -12.185848,-5.15884 -2.781385,-3.36535 -4.168787,-7.09727 -4.168787,-11.19583 0,-2.04812 0.327068,-4.46288 0.987868,-7.24429 1.17007,-5.85471 3.512401,-12.84221 7.022613,-20.96466 3.804374,-9.4396 7.174084,-16.53687 10.100359,-21.29396 l -1.646444,-1.42693 c -0.366562,-0.36672 -0.548847,-0.7683 -0.548847,-1.20738 -0.144866,-2.04812 0.182202,-3.95145 0.987859,-5.70768 l -1.319342,-1.31716 C 49.510179,177.4998 44.645505,169.12056 42.450246,159.82806 l -0.219539,-0.98792 c -2.2677,-0.0747 -4.206107,-0.95052 -5.815223,-2.63432 -1.683764,-1.60914 -2.524542,-3.76928 -2.524542,-6.47603 v -9.43965 c 0,-2.48722 0.80564,-4.64736 2.414781,-6.47603 1.685954,-1.60913 3.841685,-2.48721 6.475989,-2.63432 2.41698,-8.85571 7.171893,-16.83109 14.269147,-23.92841 10.754546,-10.756704 23.669221,-16.135081 38.744016,-16.135081 15.221875,0 28.134355,5.378377 38.744015,16.135081 7.17408,7.09732 11.929,15.11228 14.26914,24.03818 z m -0.76831,3.18317 c 0.80349,3.87905 1.20739,7.75585 1.20739,11.6349 0,2.78142 -0.25463,5.89207 -0.7683,9.32988 h 0.21954 c 1.0251,-0.21987 1.97564,-0.76831 2.85374,-1.64647 1.09763,-1.09762 1.64645,-2.48721 1.64645,-4.17102 v -9.43965 c 0,-1.53662 -0.54885,-2.92629 -1.64645,-4.17094 -0.8759,-0.87816 -1.9384,-1.38967 -3.18311,-1.5367 z m 31.28232,-20.30624 0.65878,0.3294 c 0.29455,0.29206 0.43892,0.54926 0.43892,0.76831 v 2.96362 h 2.74407 c 0.29205,0 0.54843,0.10953 0.7683,0.3294 0.22153,0.21987 0.3294,0.47625 0.3294,0.76831 0,0.36673 -0.10953,0.5866 -0.3294,0.65878 -0.29205,0.29206 -0.54843,0.43892 -0.7683,0.43892 h -2.74407 v 2.74409 c 0,0.21987 -0.1452,0.47625 -0.43892,0.76831 -0.0747,0.21987 -0.29205,0.32939 -0.65878,0.32939 -0.36673,0 -0.62145,-0.10952 -0.7683,-0.32939 -0.21987,-0.14686 -0.32691,-0.40407 -0.32691,-0.76831 v -2.74409 h -2.96576 c -0.21988,0 -0.47459,-0.14686 -0.76831,-0.43892 l -0.32939,-0.65878 c 0,-0.0747 0.11201,-0.3294 0.32939,-0.76831 0.21987,-0.21987 0.47625,-0.3294 0.76831,-0.3294 h 2.96568 v -2.96362 c 0,-0.36673 0.10952,-0.62146 0.3269,-0.76831 0.43892,-0.21987 0.69612,-0.3294 0.76831,-0.3294 z m -79.0291,19.20863 c -8.049986,-0.36674 -15.952897,-0.3294 -23.708718,0.10952 l -0.109769,0.10952 c -0.364405,0 -0.731051,-0.14686 -1.097629,-0.43892 -0.291973,-0.36673 -0.436839,-0.76831 -0.436839,-1.20739 -0.07218,-0.43891 0.03734,-0.80564 0.327069,-1.0977 0.294129,-0.36673 0.695871,-0.54843 1.20739,-0.54843 7.905101,-0.5111 15.878263,-0.54844 23.928246,-0.10953 0.51151,0 0.91542,0.18254 1.20738,0.54844 0.29421,0.29454 0.4039,0.65879 0.32931,1.09762 0,0.5111 -0.14487,0.91542 -0.43908,1.20739 -0.36664,0.29206 -0.7683,0.40158 -1.20737,0.32939 z m 19.31823,51.58852 c -7.46387,5.34328 -16.20756,8.01268 -26.233267,8.01268 -9.731557,0 -18.549886,-2.74408 -26.452796,-8.23214 -2.561862,-1.38967 -4.794433,-0.7683 -6.69552,1.86592 -0.658535,1.24472 -1.060309,2.70673 -1.207391,4.39053 l 2.19525,1.86592 c 9.439593,7.02483 20.525614,10.53721 33.255887,10.53721 13.171507,0 24.586817,-3.84168 34.248137,-11.52506 l 0.32707,-0.32939 c 0,-1.60912 -0.32707,-3.14581 -0.98787,-4.60999 -2.48502,-2.92627 -5.30154,-3.58705 -8.44953,-1.97577 z m 10.53721,-30.18475 v -18.76946 c 0,-6.36633 -3.22044,-10.09827 -9.65692,-11.19589 -9.44178,-1.09762 -18.69697,-1.64647 -27.769934,-1.64647 -9.072981,0 -17.744229,0.54844 -26.013751,1.64647 -6.440868,1.09762 -9.659116,4.82956 -9.659116,11.19589 v 18.76946 c 0,6.36625 3.183118,9.98848 9.549354,10.86655 18.001071,2.19522 35.894567,2.19522 53.673917,0 6.58357,-0.87807 9.87645,-4.5003 9.87645,-10.86655 z m -9.54935,14.0497 c -8.63613,1.1722 -17.67179,1.75615 -27.113556,1.75615 -9.367144,0 -18.437934,-0.58577 -27.218943,-1.75615 -8.341964,-1.02302 -12.512942,-5.70769 -12.512942,-14.0497 v -18.76946 c 0,-8.34203 4.135857,-13.13434 12.403181,-14.37906 17.050523,-2.34011 35.30624,-2.34011 54.76935,0 8.34416,1.24472 12.51294,6.03703 12.51294,14.37906 v 18.76946 c 0.002,8.34201 -4.27855,13.02452 -12.84003,14.0497 z m 8.89078,14.8179 1.20739,-1.09762 c 7.61093,-7.3914 12.40317,-15.95284 14.3789,-25.68443 0.58834,-3.36753 0.8781,-6.95244 0.8781,-10.75681 0,-4.31589 -0.47633,-8.59883 -1.42691,-12.84228 -2.04818,-8.85571 -6.65821,-16.79385 -13.83009,-23.81864 -9.95109,-10.098273 -22.09742,-15.14734 -36.441199,-15.14734 -14.269138,0 -26.415476,5.049067 -36.443394,15.14734 -7.095055,7.02479 -11.669964,14.96293 -13.720324,23.81864 v 0.10952 l -0.436838,1.86592 c -0.660774,3.43781 -0.987868,7.06222 -0.987868,10.86659 0,3.80437 0.327069,7.3541 0.987868,10.64704 v 0.10952 l 0.436838,2.19524 c 2.122809,8.7064 6.697711,16.53687 13.720324,23.48919 l 0.878107,0.87816 c 1.683755,-1.82866 3.549722,-2.74407 5.597891,-2.74407 1.31935,0 2.781384,0.40406 4.390508,1.20738 7.318975,5.19617 15.551169,7.79314 24.696591,7.79314 9.367136,0 17.562016,-2.52453 24.586826,-7.5736 4.32026,-2.12288 8.16195,-1.60912 11.52728,1.53661 z m 56.30822,-29.85545 c -0.80564,0 -1.53669,0.32939 -2.19522,0.98785 -0.51193,0.5111 -0.7708,1.17013 -0.7708,1.97578 0,0.87808 0.25721,1.60913 0.7708,2.19524 0.73096,0.5866 1.46201,0.87807 2.19522,0.87807 0.73097,0 1.38959,-0.29205 1.97353,-0.87807 0.58411,-0.58578 0.87816,-1.31716 0.87816,-2.19524 0,-0.80565 -0.29372,-1.46427 -0.87816,-1.97578 -0.51193,-0.65879 -1.16789,-0.98785 -1.97353,-0.98785 z m -5.04907,2.96363 c 0,-1.38959 0.43891,-2.56189 1.31931,-3.51248 1.0977,-1.09762 2.34018,-1.64639 3.732,-1.64639 1.31715,0 2.52229,0.54844 3.61991,1.64639 0.95274,0.95275 1.42692,2.12289 1.42692,3.51248 0,1.46427 -0.47625,2.63432 -1.42692,3.51239 -1.09762,1.09761 -2.305,1.64646 -3.61991,1.64646 -1.39182,0 -2.6343,-0.54843 -3.732,-1.64646 -0.88023,-0.87807 -1.31931,-2.04812 -1.31931,-3.51239 z m -19.64751,23.1599 c -0.36665,-1.24472 -0.91542,-1.86592 -1.64645,-1.86592 -3.65948,0 -5.48813,2.4521 -5.48813,7.35407 0,1.75623 0.21954,3.54971 0.65854,5.37837 1.09763,-0.65878 2.15793,-0.98784 3.18312,-0.98784 3.65729,0 6.40135,1.57179 8.23219,4.71976 0.80348,1.24256 1.35228,2.67164 1.64644,4.28076 3.36533,-0.65878 6.2565,-1.90109 8.66903,-3.73191 3.51462,-2.63431 5.26861,-5.78012 5.26861,-9.43961 0,-2.12063 -0.98785,-4.20833 -2.96353,-6.25645 -2.41701,-2.1953 -5.19618,-3.29292 -8.34415,-3.29292 -1.75625,0 -3.51245,0.98785 -5.26646,2.96362 l -0.65853,0.87807 0.10977,0.98784 c 0.29197,1.46426 0.32707,3.14806 0.10977,5.04915 0,0.43892 -0.18221,0.80564 -0.54885,1.09762 -0.36665,0.29205 -0.73105,0.40157 -1.09763,0.32939 -0.43908,0 -0.80348,-0.18254 -1.09763,-0.54844 -0.29197,-0.36672 -0.4039,-0.7683 -0.32931,-1.20738 0.0747,-1.02302 0.0398,-2.44994 -0.10977,-4.28076 l -0.32707,-1.31715 z m 27.22111,45.88077 c -0.14519,0.1452 -0.40157,0.21987 -0.7683,0.21987 h -2.85384 v 3.07338 c 0,0.21987 -0.14686,0.47625 -0.43891,0.76831 -0.0747,0.21987 -0.29372,0.32939 -0.65879,0.32939 -0.29371,0 -0.54843,-0.10952 -0.77079,-0.32939 -0.21987,-0.14686 -0.3269,-0.40407 -0.3269,-0.76831 v -3.07338 h -2.85376 c -0.36424,0 -0.62145,-0.0747 -0.76831,-0.21987 -0.21987,-0.36673 -0.32939,-0.65878 -0.32939,-0.87807 l 0.32939,-0.76831 0.76831,-0.32939 h 2.85376 v -2.74407 c 0,-0.36673 0.10952,-0.62311 0.3269,-0.76831 0.14686,-0.21987 0.40406,-0.32939 0.77079,-0.32939 0.36424,0 0.58577,0.10952 0.65879,0.32939 0.29205,0.29206 0.43891,0.54844 0.43891,0.76831 v 2.74407 h 2.85384 c 0.0747,0 0.3269,0.10952 0.7683,0.32939 0.22153,0.21987 0.3294,0.47625 0.3294,0.76831 0,0.29205 -0.10952,0.58577 -0.3294,0.87807 z m -25.02586,-29.63587 c -1.31934,-2.05036 -3.14799,-3.07338 -5.48813,-3.07338 -0.73321,0 -1.79353,0.51192 -3.18312,1.53669 l -0.10977,0.10952 -1.97572,1.64646 c -2.99872,2.4872 -6.80529,3.73191 -11.41532,3.73191 -2.26769,0 -5.19397,-1.09761 -8.78101,-3.29292 l -2.52454,-1.64637 c -9.95108,7.68337 -21.733,11.52505 -35.343558,11.52505 -12.804914,0 -24.075343,-3.40269 -33.804701,-10.2079 -2.928466,4.75709 -6.184026,11.59749 -9.768877,20.52558 -3.147989,7.68337 -5.305927,14.01234 -6.475998,18.98897 l 12.293419,3.73192 c 0.511511,-10.53722 1.573995,-21.40374 3.183118,-32.59949 0.147107,-1.02518 0.770545,-1.46426 1.868157,-1.31715 1.025188,0.14686 1.462043,0.7683 1.317152,1.86592 -1.609116,11.85436 -2.671624,23.30699 -3.183118,34.35571 l -0.333706,16.46444 c 0,3.51238 0.109769,7.13452 0.327068,10.86644 h 23.928262 v -6.25645 h -3.839495 c -1.097629,0 -1.646444,-0.54843 -1.646444,-1.64646 0,-1.09761 0.548848,-1.64638 1.646444,-1.64638 h 28.209037 c 0.36664,0 0.7332,0.18254 1.09763,0.54926 0.29413,0.29206 0.43907,0.65879 0.43907,1.09762 0,1.09761 -0.51151,1.64637 -1.53668,1.64637 h -3.29288 v 6.25654 h 23.92826 c 0.80349,-18.65967 0.0722,-37.4291 -2.19525,-56.3083 l -0.8781,-6.47599 c -0.14487,-1.02518 0.29413,-1.60913 1.31935,-1.75615 1.02518,-0.1452 1.60911,0.32939 1.7562,1.42692 l 0.8759,5.81737 4.50027,3.62215 c 1.24251,0.80564 2.81651,1.5016 4.7176,2.08554 2.19525,0.65878 4.13586,0.98784 5.81742,0.98784 4.61003,0 9.03566,-1.64646 13.28129,-4.9393 4.53539,-3.36535 6.80528,-7.1346 6.80528,-11.3056 l -0.10753,-1.75614 c -0.21954,-1.53669 -0.69587,-3.07339 -1.42692,-4.61008 z m -14.26915,45.99054 c 0.95055,0 1.75621,0.36673 2.41478,1.09761 0.73105,0.58577 1.09763,1.39183 1.09763,2.41477 0,0.87815 -0.32931,1.68379 -0.98787,2.41476 l -0.10977,0.10952 c -0.5861,0.51193 -1.38959,0.76831 -2.41478,0.76831 -0.8781,0 -1.68375,-0.25721 -2.41697,-0.76831 l -0.10977,-0.10952 c -0.65862,-0.95051 -0.98786,-1.75615 -0.98786,-2.41476 0,-0.95051 0.32931,-1.75615 0.98786,-2.41477 0.73321,-0.73097 1.57619,-1.09761 2.52673,-1.09761 z m -36.77048,-16.90343 c 2.12281,2.19522 3.18092,5.01173 3.18092,8.45167 v 5.70769 c 0,3.51237 -1.24251,6.51332 -3.72973,9.00052 -2.48942,2.56187 -5.41569,3.84169 -8.78102,3.84169 H 87.892081 c -3.437762,0 -6.438678,-1.27982 -9.000532,-3.84169 -2.561862,-2.56187 -3.841694,-5.56058 -3.841694,-9.00052 v -5.70769 c 0,-3.14797 1.02518,-5.92714 3.073357,-8.3419 l 0.8759,-0.87816 c 2.41698,-2.41477 5.378368,-3.62215 8.890778,-3.62215 h 16.57634 c 3.43777,0 6.36405,1.24256 8.78102,3.73192 z m -4.82956,3.95145 1.86597,-2.41476 c -1.75621,-1.75623 -3.87902,-2.63431 -6.36404,-2.63431 H 87.892081 c -2.632105,0 -4.864675,0.91541 -6.69552,2.74408 v 0.10952 c 4.318067,5.92714 8.636126,9.25731 12.951995,9.98836 3.584843,0.43892 7.097244,-0.73096 10.537204,-3.51237 0.5861,-0.51193 1.09762,-0.47625 1.53668,0.10952 0.51151,0.58577 0.47633,1.09761 -0.10977,1.53669 -3.58705,2.70673 -7.062134,4.06114 -10.427448,4.06114 h -1.865958 c -4.754914,-0.80564 -9.439585,-4.28076 -14.047417,-10.42744 -0.952747,1.46425 -1.426922,3.11071 -1.426922,4.93929 v 5.70769 c 0,2.56187 0.952747,4.79443 2.853835,6.69553 1.903286,1.90325 4.135856,2.85384 6.69552,2.85384 h 16.57635 c 2.48722,0 4.64515,-0.95059 6.4738,-2.85384 1.83083,-1.82867 2.74406,-4.06123 2.74406,-6.69553 v -5.70769 c 0,-1.97568 -0.47417,-3.69673 -1.42472,-5.15883 l -1.7562,2.08553 c -0.22169,0.21988 -0.47633,0.3294 -0.77054,0.3294 -0.29197,0 -0.51151,-0.0747 -0.65862,-0.21987 -0.21954,-0.14686 -0.32931,-0.40407 -0.32931,-0.76831 -0.0772,-0.29205 -0.002,-0.54843 0.2173,-0.7683 z m -2.52454,56.08868 h 23.92826 l -0.10977,-12.62267 h -23.8185 z m -3.29288,-22.17204 H 88.660426 v 22.17204 h 14.488654 z m 72.33357,-1.09761 c -0.51192,-0.58577 -1.17004,-0.87808 -1.97568,-0.87808 -0.87592,0 -1.60697,0.29206 -2.19528,0.87808 -0.58611,0.58576 -0.87591,1.24247 -0.87591,1.97568 0,0.73346 0.29197,1.46426 0.87591,2.19531 0.58834,0.51193 1.31936,0.7683 2.19528,0.7683 0.80564,0 1.46417,-0.2572 1.97568,-0.7683 0.65879,-0.65878 0.98785,-1.38958 0.98785,-2.19531 0,-0.73345 -0.32939,-1.38958 -0.98785,-1.97568 z m 1.5367,-1.64647 c 1.09761,1.09762 1.64646,2.305 1.64646,3.62215 0,1.38967 -0.54927,2.63431 -1.64646,3.732 -0.95275,0.95051 -2.1228,1.42692 -3.51462,1.42692 -1.46202,0 -2.66942,-0.47625 -3.61996,-1.42692 -1.09763,-1.09769 -1.64644,-2.34233 -1.64644,-3.732 0,-1.31715 0.54885,-2.52453 1.64644,-3.62215 0.95274,-0.95274 2.15794,-1.42692 3.61996,-1.42692 1.39182,0 2.56411,0.47459 3.51462,1.42692 z m -25.35518,-13.83005 0.21954,-0.87815 c 0,-0.43892 -0.14487,-0.73097 -0.43908,-0.87808 -0.21954,-0.29205 -0.51151,-0.43891 -0.87591,-0.43891 -0.36664,0 -0.66077,0.14686 -0.8781,0.43891 -0.29197,0.14686 -0.43907,0.43892 -0.43907,0.87808 l 0.43907,0.87815 c 0.21954,0.14686 0.51152,0.21987 0.8781,0.21987 0.43684,0 0.73105,-0.0747 0.87591,-0.21987 z m 27.00164,40.39263 c 0,1.09761 -0.54927,1.64646 -1.64646,1.64646 h -3.29284 c -0.43891,0 -0.80564,-0.14686 -1.0977,-0.43891 -0.36673,-0.36673 -0.54926,-0.76831 -0.54926,-1.20739 0,-1.09761 0.54926,-1.64646 1.64646,-1.64646 h 3.29292 c 1.09761,0 1.64638,0.54844 1.64638,1.64646 z M 70.659347,134.2541 c -1.097621,0 -1.646436,-0.54843 -1.646436,-1.64647 0,-1.09762 0.548848,-1.64647 1.646436,-1.64647 h 0.548848 c 1.025179,-0.29205 1.683755,0.10952 1.975727,1.20747 0.219539,1.02519 -0.184442,1.68373 -1.209581,1.9757 z M 40.145334,107.47184 c -0.586101,0.5866 -0.875908,1.2799 -0.875908,2.08555 0,0.73097 0.291972,1.38959 0.875908,1.97569 0.588342,0.58661 1.282031,0.87817 2.085489,0.87817 0.878099,0 1.609124,-0.29206 2.19525,-0.87817 0.586102,-0.58577 0.878107,-1.24248 0.878107,-1.97569 0,-0.80565 -0.294129,-1.5016 -0.878107,-2.08555 -0.583944,-0.58411 -1.317151,-0.87808 -2.19525,-0.87808 -0.803483,0 -1.499354,0.29206 -2.085489,0.87808 z m 2.085489,-3.07332 c 1.464233,0 2.671624,0.47625 3.622172,1.42693 1.09762,1.09762 1.646435,2.34235 1.646435,3.73194 0,1.31716 -0.548848,2.52455 -1.646435,3.62216 -0.952747,0.95276 -2.157939,1.42693 -3.622172,1.42693 -1.389593,0 -2.559663,-0.47376 -3.512402,-1.42693 -1.097629,-1.09761 -1.646444,-2.305 -1.646444,-3.62216 0,-1.38959 0.548848,-2.63432 1.646444,-3.73194 0.952739,-0.95059 2.122809,-1.42693 3.512402,-1.42693 z m -0.219539,30.18489 c -1.242512,0.0747 -2.377461,0.58578 -3.402641,1.5367 -1.025188,1.09762 -1.536682,2.48721 -1.536682,4.17094 v 9.43965 c 0,1.75624 0.511511,3.14799 1.536682,4.17102 0.95054,0.95275 1.938408,1.46427 2.963588,1.5367 -0.439079,-2.92629 -0.658535,-5.99969 -0.658535,-9.22011 0,-4.17102 0.366563,-7.97539 1.097629,-11.41536 z M 26.9738,147.31592 c -0.291972,0.29372 -0.548848,0.43892 -0.768304,0.43892 h -2.963595 v 2.85386 c 0,0.29372 -0.111927,0.54843 -0.329309,0.76831 -0.144866,0.21987 -0.403899,0.32939 -0.768304,0.32939 -0.366562,0 -0.586101,-0.10952 -0.660775,-0.32939 -0.291972,-0.29206 -0.436838,-0.54844 -0.436838,-0.76831 v -2.85386 h -2.744064 c -0.221697,0 -0.476415,-0.1452 -0.770544,-0.43892 -0.21954,-0.0747 -0.327069,-0.29205 -0.327069,-0.65878 0,-0.29206 0.10977,-0.54844 0.327069,-0.76831 0.221696,-0.21987 0.476414,-0.32939 0.770544,-0.32939 h 2.744064 v -2.96355 c 0,-0.21987 0.144866,-0.47459 0.436838,-0.76831 l 0.660775,-0.32939 c 0.07218,0 0.327069,0.10952 0.768304,0.32939 0.219539,0.21987 0.329309,0.47625 0.329309,0.76831 v 2.96355 h 2.963587 c 0.294129,0 0.548848,0.10952 0.768304,0.32939 0.221696,0.14686 0.329309,0.40407 0.329309,0.76831 0,0.36424 -0.10977,0.58411 -0.329309,0.65878 z m -7.134573,32.70933 c 0.733207,-0.65878 1.573994,-0.98784 2.524542,-0.98784 0.95054,0 1.756205,0.32939 2.414781,0.98784 0.733208,0.58577 1.097621,1.38958 1.097621,2.41476 0,0.87816 -0.327069,1.6838 -0.985669,2.41485 l -0.111927,0.10952 c -0.586101,0.5111 -1.389593,0.76831 -2.414773,0.76831 -0.878106,0 -1.683764,-0.25472 -2.414781,-0.76831 l -0.109769,-0.10952 c -0.658618,-0.95059 -0.98567,-1.75623 -0.98567,-2.41485 -0.0022,-0.9505 0.327069,-1.75614 0.98567,-2.41476 z m 1.20739,2.41476 0.439079,0.87816 c 0.221696,0.1452 0.511511,0.21987 0.878098,0.21987 0.439078,0 0.73105,-0.0747 0.878107,-0.21987 h 0.219539 l 0.219539,-0.87816 c 0,-0.43891 -0.144866,-0.73096 -0.436838,-0.87807 -0.221696,-0.29206 -0.511511,-0.43891 -0.878107,-0.43891 -0.366562,0 -0.658534,0.1452 -0.878098,0.43891 -0.29413,0.14686 -0.441236,0.43891 -0.441236,0.87807 z m 21.18419,17.01321 c 1.464233,0 2.671623,0.43891 3.622171,1.31715 1.097621,1.09769 1.646435,2.34241 1.646435,3.732 0,1.31715 -0.548847,2.52453 -1.646435,3.62214 -0.952747,0.95275 -2.157938,1.42693 -3.622171,1.42693 -1.389594,0 -2.559664,-0.47376 -3.512402,-1.42693 -1.09763,-1.09761 -1.646444,-2.30499 -1.646444,-3.62214 0,-1.38959 0.548848,-2.63431 1.646444,-3.732 0.952738,-0.87808 2.122808,-1.31715 3.512402,-1.31715 z m 0,2.08554 c -0.803484,0 -1.499355,0.29205 -2.085489,0.87807 -0.586102,0.58577 -0.875908,1.27981 -0.875908,2.08554 0,0.73096 0.291972,1.38958 0.875908,1.97568 0.588341,0.58577 1.28203,0.87808 2.085489,0.87808 0.878098,0 1.609123,-0.29206 2.19525,-0.87808 0.586101,-0.58577 0.878106,-1.24248 0.878106,-1.97568 0,-0.80564 -0.294129,-1.5016 -0.878106,-2.08554 -0.583945,-0.58411 -1.317152,-0.87807 -2.19525,-0.87807 z m -28.538286,20.96465 c 0.29413,-0.29205 0.548848,-0.43891 0.770545,-0.43891 0.291972,0 0.511511,0.1452 0.658534,0.43891 0.291972,0.14686 0.439078,0.36673 0.439078,0.65879 v 2.96361 h 2.853826 c 0.291972,0 0.511511,0.10952 0.658535,0.32939 0.219539,0.21987 0.329308,0.47625 0.329308,0.7683 0,0.29206 -0.111926,0.54844 -0.329308,0.76831 -0.366563,0.21987 -0.586102,0.32939 -0.658535,0.32939 h -2.853809 v 2.96361 c 0,0.29372 -0.147106,0.51193 -0.439078,0.65879 -0.144866,0.29205 -0.366646,0.43891 -0.658618,0.43891 -0.221696,0 -0.476332,-0.1452 -0.770544,-0.43891 -0.219539,-0.0747 -0.327068,-0.29206 -0.327068,-0.65879 v -2.96369 h -2.965786 l -0.7683037,-0.32939 -0.3293087,-0.76831 c 0,-0.0747 0.10977,-0.32939 0.3293087,-0.7683 0.144866,-0.21987 0.4038987,-0.32939 0.7683037,-0.32939 h 2.965786 v -2.96353 c -0.0022,-0.36673 0.107529,-0.58577 0.327068,-0.65879 z m 31.062828,21.62328 c 0,3.43994 1.134941,6.44081 3.40264,9.00052 2.561863,2.78133 5.782301,4.171 9.659116,4.171 l 0.109769,-0.10952 0.21954,-13.93991 -12.842234,-3.95145 c -0.366645,1.53669 -0.548848,3.14581 -0.548848,4.82953 z m -11.415313,19.97673 c 0.586102,0.58577 0.878099,1.38967 0.878099,2.41485 0,0.95051 -0.29413,1.75615 -0.878099,2.41476 v 0.10952 c -0.73105,0.5111 -1.574002,0.76831 -2.524542,0.76831 -0.875908,0 -1.683764,-0.25721 -2.414781,-0.76831 v -0.10952 c -0.73105,-0.73096 -1.097629,-1.53669 -1.097629,-2.41476 0,-1.0977 0.366562,-1.90334 1.097629,-2.41485 0.658535,-0.73097 1.464233,-1.09761 2.414781,-1.09761 0.95054,0 1.793517,0.36424 2.524542,1.09761 z m -1.646443,1.53669 c -0.21954,-0.29205 -0.511512,-0.43891 -0.878099,-0.43891 -0.364405,0 -0.693714,0.14686 -0.985669,0.43891 -0.221696,0.21987 -0.329309,0.5111 -0.329309,0.87816 l 0.329309,0.87807 h 0.219539 c 0.144866,0.14686 0.403899,0.21987 0.768304,0.21987 0.439078,0 0.733208,-0.0747 0.878098,-0.21987 h 0.219539 l 0.111927,-0.87807 c -0.0044,-0.43891 -0.114167,-0.73346 -0.333706,-0.87816 z m -11.744605,21.40374 c 0,-1.09761 0.548848,-1.64646 1.646444,-1.64646 H 33.55736 c 1.097629,0 1.646444,0.54843 1.646444,1.64646 0,1.09761 -0.546608,1.64646 -1.644245,1.64646 h -11.96411 c -0.439079,0 -0.805641,-0.14686 -1.09763,-0.43891 -0.366562,-0.36673 -0.548847,-0.76831 -0.548847,-1.20739 z m 41.600041,-1.64646 H 85.36753 V 272.77472 H 61.549029 Z"
       style="clip-rule:evenodd;fill-rule:evenodd;stroke-width:2.1952529" />
  </g>
</svg>
